<?xml version="1.0" encoding="UTF-8"?>
<svg id="Calque_1" data-name="Calque 1" xmlns="http://www.w3.org/2000/svg" xmlns:xlink="http://www.w3.org/1999/xlink" viewBox="0 0 2000 2000">
  <defs>
    <style>
      .cls-1 {
        fill: url(#Dégradé_sans_nom_4);
      }

      .cls-2 {
        fill: url(#Dégradé_sans_nom_5);
      }

      .cls-3 {
        fill: url(#Dégradé_sans_nom_4-3);
      }

      .cls-4 {
        fill: url(#Dégradé_sans_nom_4-2);
      }

      .cls-5 {
        fill: url(#Dégradé_sans_nom_5-2);
      }

      .cls-6 {
        fill: #fff;
      }

      .cls-7 {
        fill: #01644d;
      }
    </style>
    <linearGradient id="Dégradé_sans_nom_5" data-name="Dégradé sans nom 5" x1="223.22" y1="978.53" x2="343.7" y2="978.53" gradientUnits="userSpaceOnUse">
      <stop offset="0" stop-color="#469a77"/>
      <stop offset=".51" stop-color="#8ecaab"/>
      <stop offset="1" stop-color="#38b7b1"/>
    </linearGradient>
    <linearGradient id="Dégradé_sans_nom_4" data-name="Dégradé sans nom 4" x1="223.22" y1="978.53" x2="343.7" y2="978.53" gradientUnits="userSpaceOnUse">
      <stop offset="0" stop-color="#469a77"/>
      <stop offset="1" stop-color="#38b7b1"/>
    </linearGradient>
    <linearGradient id="Dégradé_sans_nom_4-2" data-name="Dégradé sans nom 4" x1="1565.98" y1="978.53" x2="1841.99" y2="978.53" xlink:href="#Dégradé_sans_nom_4"/>
    <linearGradient id="Dégradé_sans_nom_4-3" data-name="Dégradé sans nom 4" x1="1565.98" y1="978.53" x2="1841.99" y2="978.53" xlink:href="#Dégradé_sans_nom_4"/>
    <linearGradient id="Dégradé_sans_nom_5-2" data-name="Dégradé sans nom 5" x1="1662.88" y1="978.53" x2="1745.09" y2="978.53" xlink:href="#Dégradé_sans_nom_5"/>
  </defs>
  <g>
    <path class="cls-6" d="M770.79,1087.94h-40.69v-118.51c0-20.02-25.68-41.59-44.42-44.87-29.65-5.2-64.76,18.52-64.76,49.83v113.56h-40.69v-118.51c0-20.11-25.63-41.58-44.42-44.87-30.16-5.29-64.76,18.67-64.76,50.82v112.56h-39.21l-1.54-3.42c4.95-63.59-19.68-142.29,44.2-183.05,36.4-23.22,84.27-19.25,116.12,9.96,2.07,1.9,9.6,11.2,10.91,10.88,40.66-51.9,121.84-46.52,155.78,10,4.77,7.93,13.48,28.24,13.48,37.11v118.51Z"/>
    <path class="cls-6" d="M182.22,1087.94l-.04-168.14c1.47-28.4,14.08-55.88,35.76-74.35,21.43-18.26,53.81-20.41,61.06-53.05l8.61,14.2c10.35,17.05,30.33,19.15,46.14,28.28,31.49,18.18,50.22,51.59,50.99,87.9l-.04,165.17h-40.69v-172.07c0-33.26-34.9-60.1-66.88-56.91-26.37,2.64-54.21,28.63-54.21,55.91v173.06h-40.69Z"/>
    <path class="cls-6" d="M1349.44,1005.63c7.39,47.56,59.75,73.28,102.25,50.1,3.11-1.7,13.49-10.43,14.37-10.43h46.15c-50.86,80.63-189.54,59.68-203.35-39.29-13.72-98.33,99.54-152.8,175.87-99.37,18.96,13.28,42.37,45.92,42.37,69.74v27.77l-1.49,1.49h-176.17ZM1350.93,975.88h133.99c.91-.72,1.29-1.03,1.32-2.26.13-6.35-8.95-23.23-12.92-28.8-26.5-37.21-84.84-36.32-111.39.4-4.49,6.21-11.63,19.96-12.31,27.46-.11,1.24-.05,2.79,1.3,3.19Z"/>
    <path class="cls-6" d="M1028.85,1087.94h-40.69v-13.88c-5.46,2.22-10.23,6.24-15.5,8.81-81.75,39.82-181.44-21.71-160.71-115.95,19.18-87.17,138.97-107.76,194.05-42.09,9.92,11.83,22.86,38.09,22.86,53.53v109.59ZM910.54,917.65c-86.74,8.92-79.23,154.07,15.57,146.47,89.71-7.19,82.51-156.55-15.57-146.47Z"/>
    <path class="cls-6" d="M1067.56,1087.94l-.04-105.66c5.52-86.75,110.1-128.38,172.39-66.55,12.25,12.16,29.13,41.24,29.13,58.66v113.56h-39.21l-1.49-1.49v-112.07c0-22.86-28.82-46.81-50.22-49.98-31.41-4.66-69.87,20.58-69.87,53.95v109.59h-40.69Z"/>
  </g>
  <g>
    <path class="cls-2" d="M343.7,978.85c-.11-.62-.67-.53-1.11-.66-12.25-3.52-23.87-3.78-35.51-10.56-17.19-10.02-19.73-31.62-23.46-49.35-4.32,17.76-6.24,39.07-23.58,49.23-11.36,6.66-23.37,7.56-35.69,10.69-.45.11-1,0-1.13.64,17.71,3.34,39.41,6.28,49.34,23.3,6.72,11.52,7.15,23.27,10.56,35.51.12.44.04,1,.66,1.11,3.38-17.51,6.18-38.83,22.78-48.9,10.73-6.51,24.95-8.7,37.14-11.02Z"/>
    <path class="cls-1" d="M343.7,978.85c-12.2,2.31-26.42,4.51-37.14,11.02-16.6,10.07-19.39,31.39-22.78,48.9-.62-.11-.53-.67-.66-1.11-3.4-12.23-3.84-23.99-10.56-35.51-9.93-17.03-31.63-19.97-49.34-23.3.12-.65.68-.53,1.13-.64,12.33-3.14,24.33-4.04,35.69-10.69,17.34-10.16,19.26-31.47,23.58-49.23,3.73,17.72,6.27,39.32,23.46,49.35,11.63,6.78,23.26,7.04,35.51,10.56.44.13,1,.04,1.11.66Z"/>
  </g>
  <g>
    <g>
      <path class="cls-4" d="M1841.99,979.26c-.26-1.42-1.54-1.22-2.55-1.5-28.06-8.06-54.69-8.65-81.34-24.19-39.38-22.96-45.19-72.45-53.75-113.05-9.9,40.69-14.3,89.5-54.02,112.78-26.03,15.25-53.54,17.31-81.78,24.5-1.02.26-2.3,0-2.58,1.47,40.57,7.65,90.3,14.38,113.04,53.39,15.39,26.39,16.39,53.31,24.19,81.34.28,1.01.1,2.29,1.5,2.55,7.75-40.12,14.15-88.96,52.18-112.03,24.58-14.91,57.15-19.94,85.1-25.24Z"/>
      <path class="cls-3" d="M1841.99,979.26c-27.95,5.3-60.52,10.33-85.1,25.24-38.03,23.08-44.43,71.92-52.18,112.03-1.41-.26-1.22-1.54-1.5-2.55-7.8-28.03-8.8-54.95-24.19-81.34-22.75-39.01-72.48-45.74-113.04-53.39.28-1.48,1.56-1.21,2.58-1.47,28.24-7.18,55.75-9.25,81.78-24.5,39.72-23.28,44.12-72.09,54.02-112.78,8.56,40.61,14.37,90.09,53.75,113.05,26.65,15.54,53.29,16.14,81.34,24.19,1,.29,2.29.09,2.55,1.5Z"/>
    </g>
    <g>
      <path class="cls-5" d="M1745.09,978.75c-.08-.42-.46-.36-.76-.45-8.36-2.4-16.29-2.58-24.23-7.2-11.73-6.84-13.46-21.58-16.01-33.67-2.95,12.12-4.26,26.66-16.09,33.59-7.75,4.54-15.94,5.16-24.35,7.3-.3.08-.69,0-.77.44,12.08,2.28,26.89,4.28,33.67,15.9,4.58,7.86,4.88,15.88,7.2,24.23.08.3.03.68.45.76,2.31-11.95,4.21-26.49,15.54-33.37,7.32-4.44,17.02-5.94,25.34-7.52Z"/>
      <path class="cls-7" d="M1745.09,978.75c-8.32,1.58-18.02,3.08-25.34,7.52-11.33,6.87-13.23,21.42-15.54,33.37-.42-.08-.36-.46-.45-.76-2.32-8.35-2.62-16.37-7.2-24.23-6.77-11.62-21.58-13.62-33.67-15.9.08-.44.46-.36.77-.44,8.41-2.14,16.6-2.75,24.35-7.3,11.83-6.93,13.14-21.47,16.09-33.59,2.55,12.09,4.28,26.83,16.01,33.67,7.94,4.63,15.87,4.81,24.23,7.2.3.09.68.03.76.45Z"/>
    </g>
  </g>
</svg>