<svg width="2000" height="2000" viewBox="0 0 2000 2000" fill="none" xmlns="http://www.w3.org/2000/svg">
<path d="M794.09 1066.43H753.44V948.03C753.44 928.03 727.79 906.48 709.06 903.2C679.44 898 644.36 921.71 644.36 952.98V1066.42H603.71V948.02C603.71 927.93 578.11 906.48 559.33 903.19C529.2 897.91 494.63 921.84 494.63 953.96V1066.41H455.46L453.92 1062.99C458.87 999.46 434.26 920.83 498.07 880.12C534.43 856.92 582.25 860.89 614.08 890.07C616.15 891.97 623.67 901.26 624.98 900.94C665.6 849.09 746.7 854.47 780.61 910.93C785.37 918.86 794.08 939.15 794.08 948V1066.4L794.09 1066.43Z" fill="white"/>
<path d="M206.1 1066.43L206.06 898.45C207.52 870.08 220.13 842.62 241.79 824.17C263.2 805.93 295.55 803.78 302.79 771.17L311.39 785.36C321.73 802.39 341.69 804.49 357.48 813.61C388.94 831.77 407.65 865.15 408.42 901.42L408.38 1066.43H367.73V894.53C367.73 861.3 332.87 834.49 300.92 837.68C274.58 840.31 246.76 866.28 246.76 893.54V1066.43H206.11H206.1Z" fill="white"/>
<path d="M1372.17 984.19C1379.55 1031.7 1431.86 1057.4 1474.32 1034.24C1477.43 1032.55 1487.79 1023.82 1488.68 1023.82H1534.79C1483.98 1104.38 1345.43 1083.44 1331.64 984.56C1317.94 886.33 1431.09 831.91 1507.34 885.29C1526.29 898.55 1549.66 931.17 1549.66 954.96V982.7L1548.17 984.19H1372.17ZM1373.66 954.47H1507.52C1508.43 953.76 1508.81 953.44 1508.84 952.22C1508.97 945.88 1499.9 929.01 1495.94 923.45C1469.47 886.28 1411.18 887.17 1384.66 923.85C1380.17 930.06 1373.04 943.79 1372.36 951.29C1372.25 952.53 1372.31 954.08 1373.66 954.48V954.47Z" fill="white"/>
<path d="M1051.9 1066.43H1011.25V1052.56C1005.79 1054.78 1001.03 1058.79 995.76 1061.36C914.09 1101.14 814.5 1039.67 835.21 945.52C854.37 858.44 974.04 837.87 1029.07 903.48C1038.98 915.3 1051.91 941.53 1051.91 956.95V1066.43H1051.9ZM933.7 896.3C847.04 905.21 854.55 1050.22 949.26 1042.63C1038.88 1035.45 1031.69 886.23 933.7 896.3Z" fill="white"/>
<path d="M1090.57 1066.43L1090.53 960.87C1096.04 874.2 1200.53 832.61 1262.76 894.38C1275 906.53 1291.86 935.58 1291.86 952.98V1066.42H1252.69L1251.2 1064.93V952.97C1251.2 930.13 1222.4 906.21 1201.03 903.03C1169.65 898.37 1131.22 923.59 1131.22 956.93V1066.41H1090.57V1066.43Z" fill="white"/>
<path d="M1673.52 985.59H1708.28V985.53H1793.95V951.38H1708.32L1708.06 863.37H1673.35V863.38H1673.52V985.59Z" fill="#43B48F"/>
<path d="M1708.11 951.15H1673.35V951.21H1587.68V985.36H1673.31L1673.56 1073.36H1708.28H1708.11V951.15Z" fill="#43B48F"/>
<path d="M1708.28 951.21H1673.35V985.59H1708.28V951.21Z" fill="#00644D"/>
<path d="M367.42 957.44C367.31 956.82 366.75 956.91 366.31 956.78C354.07 953.27 342.46 953.01 330.84 946.23C313.67 936.22 311.13 914.64 307.4 896.93C303.08 914.67 301.17 935.96 283.84 946.11C272.49 952.76 260.49 953.66 248.18 956.79C247.73 956.9 247.18 956.79 247.05 957.43C264.74 960.76 286.42 963.7 296.34 980.71C303.05 992.22 303.49 1003.96 306.89 1016.18C307.01 1016.62 306.93 1017.18 307.55 1017.29C310.93 999.8 313.72 978.5 330.3 968.44C341.02 961.94 355.22 959.74 367.41 957.43L367.42 957.44Z" fill="url(#paint0_linear_78507_24586)"/>
<path d="M367.42 957.44C355.23 959.75 341.03 961.95 330.31 968.45C313.72 978.51 310.94 999.81 307.56 1017.3C306.95 1017.19 307.03 1016.63 306.9 1016.19C303.5 1003.97 303.06 992.23 296.35 980.72C286.43 963.71 264.75 960.77 247.06 957.44C247.18 956.8 247.74 956.91 248.19 956.8C260.5 953.67 272.5 952.77 283.85 946.12C301.17 935.97 303.09 914.68 307.41 896.94C311.14 914.65 313.68 936.22 330.85 946.24C342.47 953.02 354.09 953.28 366.32 956.79C366.76 956.92 367.32 956.83 367.43 957.45L367.42 957.44Z" fill="url(#paint1_linear_78507_24586)"/>
<defs>
<linearGradient id="paint0_linear_78507_24586" x1="247.05" y1="957.12" x2="367.42" y2="957.12" gradientUnits="userSpaceOnUse">
<stop stop-color="#469A77"/>
<stop offset="0.51" stop-color="#8ECAAB"/>
<stop offset="1" stop-color="#38B7B1"/>
</linearGradient>
<linearGradient id="paint1_linear_78507_24586" x1="247.05" y1="957.12" x2="367.42" y2="957.12" gradientUnits="userSpaceOnUse">
<stop stop-color="#469A77"/>
<stop offset="1" stop-color="#38B7B1"/>
</linearGradient>
</defs>
</svg>
